<svg width="232" height="100" viewBox="0 0 232 100" fill="none" xmlns="http://www.w3.org/2000/svg">
<rect width="232" height="100" rx="12" fill="url(#paint0_linear)"/>
<path fill-rule="evenodd" clip-rule="evenodd" d="M98.2162 37.9948C96.1763 37.9948 93.7553 38.4046 91.1101 41.3102V33.1788C91.1101 31.1247 89.3503 29.4537 87.1871 29.4537C85.0239 29.4537 83.2642 31.1247 83.2642 33.1788V59.6961C83.2642 61.7502 85.0239 63.4212 87.1871 63.4212C89.3503 63.4212 91.1101 61.7502 91.1101 59.6961V49.4042C91.1101 46.4454 92.5896 44.8117 95.2852 44.8117C97.9248 44.8117 99.3146 46.3976 99.3146 49.4042V59.6961C99.3146 61.7502 101.074 63.4212 103.238 63.4212C105.401 63.4212 107.161 61.7502 107.161 59.6961V47.2437C107.155 41.4538 103.815 37.9948 98.2162 37.9948ZM120.745 38.1758C117.551 38.1758 115.018 38.5696 112.535 39.453C111.246 39.9106 110.383 41.092 110.383 42.3905C110.383 44.1253 111.834 45.4823 113.689 45.4823C114.07 45.4823 114.39 45.4291 114.827 45.2907C116.335 44.8437 117.926 44.6309 119.703 44.6309C123.917 44.6309 124.814 46.8393 124.825 48.7072C123.362 48.2548 121.518 47.8398 118.946 47.8398C112.243 47.8398 108.399 50.7506 108.399 55.8327V55.9232C108.399 60.5157 112.031 63.6022 117.433 63.6022C120.476 63.6022 122.914 62.7241 124.859 60.9255C125.189 62.2399 126.517 63.4266 128.557 63.4266C130.704 63.4266 132.385 61.8514 132.385 59.8399V48.8615C132.385 45.4078 131.432 42.747 129.544 40.959C127.593 39.1124 124.634 38.1758 120.745 38.1758ZM119.607 58.2647C117.383 58.2647 116.004 57.2642 116.004 55.6518V55.5613C116.004 53.6403 117.696 52.544 120.65 52.544C122.163 52.544 123.67 52.8261 124.92 53.3369V54.3533C124.92 56.6522 122.735 58.2647 119.607 58.2647ZM142.899 41.3741C144.927 39.1017 147.427 37.9949 150.52 37.9949C156.422 37.9949 162.39 42.3745 162.39 50.7506V50.8411C162.39 54.6992 161.14 57.9667 158.781 60.2975C156.623 62.4314 153.692 63.6022 150.52 63.6022C147.466 63.6022 145.039 62.6124 142.938 60.505V66.8909C142.938 68.945 141.178 70.616 139.015 70.616C136.852 70.616 135.092 68.945 135.092 66.8909V41.9009C135.092 39.8468 136.852 38.1758 139.015 38.1758C140.993 38.1758 142.63 39.57 142.899 41.3741ZM154.55 50.7506C154.55 47.1373 152.022 44.4073 148.671 44.4073C145.297 44.4073 142.843 47.0734 142.843 50.7506V50.8411C142.843 54.5183 145.292 57.1844 148.671 57.1844C152.078 57.1844 154.55 54.5183 154.55 50.8411V50.7506ZM179.628 37.9949C176.535 37.9949 174.035 39.1017 172.007 41.3741C171.738 39.57 170.101 38.1758 168.123 38.1758C165.96 38.1758 164.2 39.8468 164.2 41.9009V66.8909C164.2 68.945 165.96 70.616 168.123 70.616C170.286 70.616 172.046 68.945 172.046 66.8909V60.505C174.147 62.6124 176.574 63.6022 179.628 63.6022C182.8 63.6022 185.731 62.4314 187.889 60.2975C190.248 57.9667 191.498 54.6992 191.498 50.8411V50.7506C191.498 42.3745 185.53 37.9949 179.628 37.9949ZM177.779 44.4073C181.13 44.4073 183.658 47.1373 183.658 50.7506V50.8411C183.658 54.5183 181.186 57.1844 177.779 57.1844C174.4 57.1844 171.951 54.5183 171.951 50.8411V50.7506C171.951 47.0734 174.405 44.4073 177.779 44.4073ZM209 40.9856C209.729 39.1443 211.029 38.1758 212.761 38.1758C214.851 38.1758 216.493 39.6924 216.487 41.6188C216.487 42.1776 216.297 42.9865 216.129 43.359L207.28 63.5383C205.055 68.6523 202.735 70.467 198.414 70.467C196.889 70.467 195.718 70.2754 194.373 69.8178C193.448 69.4985 191.89 68.6683 191.89 66.6993C191.89 64.7623 193.499 63.6075 195.051 63.6075C195.668 63.6075 196.038 63.7086 196.335 63.8044C196.946 63.9853 197.282 64.0598 197.747 64.0598C198.924 64.0598 199.417 63.8789 200.011 62.7986L200.19 62.3942L191.582 43.4548C191.386 42.9865 191.179 42.2628 191.179 41.7572C191.179 39.7137 192.843 38.1705 195.051 38.1705C196.873 38.1705 198.106 39.0751 198.812 40.9377L203.996 54.1724L209 40.9856Z" fill="white"/>
<path d="M59.692 34.8829V56.6493C59.692 65.2883 53.0208 72.2924 44.7922 72.2924H43.2851L35.589 80.3671C35.2876 80.6835 34.8707 80.8839 34.4085 80.8839C33.9815 80.8839 33.5947 80.7204 33.2983 80.4462L33.1677 80.309L33.1627 80.3038L25.5319 72.2924H24.0198C15.7963 72.2924 9.125 65.2883 9.125 56.6493V34.8829C9.125 26.2439 15.7963 19.2399 24.0248 19.2399H44.7922C53.0208 19.2399 59.692 26.2439 59.692 34.8829Z" fill="#FFD666"/>
<path d="M20.9553 52.9482C19.4884 52.9482 18.6524 54.7031 19.5035 55.9703C22.8127 60.9063 28.2848 64.1244 34.4678 64.1244C40.6508 64.1244 46.1178 60.901 49.4271 55.9703C50.2782 54.7031 49.4421 52.9482 47.9752 52.9482H20.9553Z" fill="white"/>
<path d="M29.5463 45.4781H20.6948V40.7913C20.6948 38.204 22.6774 36.1045 25.1205 36.1045C27.5637 36.1045 29.5463 38.204 29.5463 40.7913V45.4781Z" fill="white"/>
<path d="M48.2406 45.4781H39.3892V40.7913C39.3892 38.204 41.3717 36.1045 43.8149 36.1045C46.258 36.1045 48.2406 38.204 48.2406 40.7913V45.4781Z" fill="white"/>
<defs>
<linearGradient id="paint0_linear" x1="0" y1="0" x2="203.839" y2="140.776" gradientUnits="userSpaceOnUse">
<stop stop-color="#08C3C8"/>
<stop offset="1" stop-color="#22B8CF"/>
</linearGradient>
</defs>
</svg>
